<?xml version="1.0" encoding="UTF-8" standalone="no"?>
<svg
   xmlns:dc="http://purl.org/dc/elements/1.1/"
   xmlns:cc="http://creativecommons.org/ns#"
   xmlns:rdf="http://www.w3.org/1999/02/22-rdf-syntax-ns#"
   xmlns:svg="http://www.w3.org/2000/svg"
   xmlns="http://www.w3.org/2000/svg"
   xmlns:sodipodi="http://sodipodi.sourceforge.net/DTD/sodipodi-0.dtd"
   xmlns:inkscape="http://www.inkscape.org/namespaces/inkscape"
   enable-background="new 0 0 32 32"
   height="32px"
   id="svg2"
   version="1.1"
   viewBox="0 0 32 32"
   width="32px"
   xml:space="preserve"
   sodipodi:docname="new-server.svg"
   inkscape:version="0.92.2 5c3e80d, 2017-08-06"><metadata
     id="metadata17"><rdf:RDF><cc:Work
         rdf:about=""><dc:format>image/svg+xml</dc:format><dc:type
           rdf:resource="http://purl.org/dc/dcmitype/StillImage" /><dc:title></dc:title></cc:Work></rdf:RDF></metadata><defs
     id="defs15" /><sodipodi:namedview
     pagecolor="#ffffff"
     bordercolor="#666666"
     borderopacity="1"
     objecttolerance="10"
     gridtolerance="10"
     guidetolerance="10"
     inkscape:pageopacity="0"
     inkscape:pageshadow="2"
     inkscape:window-width="1187"
     inkscape:window-height="860"
     id="namedview13"
     showgrid="false"
     inkscape:zoom="7.375"
     inkscape:cx="-8.2711864"
     inkscape:cy="16"
     inkscape:window-x="0"
     inkscape:window-y="0"
     inkscape:window-maximized="0"
     inkscape:current-layer="svg2" /><g
     id="background"><rect
       fill="none"
       height="32"
       width="32"
       id="rect2" /></g><g
     id="server_x5F_add"
     style="fill:#e6e6e6;fill-opacity:1"
     transform="matrix(1.0666667,0,0,1.0666667,-2.1333333,-2.1333333)"><path
       d="M 30,17.349 V 12 h -2 v -2 h 2 V 2 H 2 v 8 h 2 v 2 H 2 v 8 h 2 v 2 H 2 v 8 h 15.349 c 1.545,1.248 3.51,1.999 5.651,2 4.971,-0.002 8.998,-4.029 9,-9 -0.001,-2.142 -0.752,-4.106 -2,-5.651 z M 14.059,22 H 6 v -2 h 8.522 c -0.225,0.638 -0.387,1.306 -0.463,2 z M 26,12 H 6 V 10 H 26 Z M 4,6 H 8 V 8 H 4 Z m 0,10 h 4 v 2 H 4 Z M 8,28 H 4 v -2 h 4 z m 15,1.883 C 19.199,29.874 16.124,26.799 16.115,23 16.124,19.199 19.199,16.124 23,16.115 26.799,16.124 29.874,19.199 29.883,23 29.874,26.799 26.799,29.874 23,29.883 Z"
       id="path5"
       style="fill:#e6e6e6;fill-opacity:1"
       inkscape:connector-curvature="0" /><g
       id="g9"
       style="fill:#e6e6e6;fill-opacity:1"><polygon
         points="24.002,22 24.002,18 22,18 22,22 18,22 18,24 22,24 22,28 24.002,28 24.002,24 28,24 28,22 "
         id="polygon7"
         style="fill:#e6e6e6;fill-opacity:1" /></g></g><path
     style="fill:#c5c5c5;fill-opacity:1;stroke-width:0.13559322"
     d="M 20.111157,31.706171 C 19.183083,31.481327 17.559052,30.739192 16.902471,30.239893 L 16.435449,29.884746 H 8.2584027 0.08135593 V 25.613559 21.342373 H 1.0983051 2.1152542 V 20.257627 19.172881 H 1.0983051 0.08135593 V 14.901695 10.630508 H 1.0983051 2.1152542 V 9.5457627 8.4610169 H 1.0983051 0.08135593 V 4.2576271 0.05423729 H 14.99661 29.911864 V 4.2576271 8.4610169 h -1.084745 -1.084746 v 1.0790422 1.0790419 l 1.050847,0.0396 1.050848,0.0396 0.03663,2.893987 c 0.03574,2.823431 0.04461,2.904451 0.364039,3.32324 0.537501,0.7047 1.282155,2.403861 1.496083,3.413782 0.110127,0.519894 0.201292,1.451862 0.202587,2.071037 0.0091,4.355673 -2.937668,8.178395 -7.131135,9.250903 -1.247841,0.319145 -3.501799,0.345474 -4.701117,0.05492 z m 3.956218,-2.165485 c 1.358729,-0.320281 2.597936,-1.046695 3.602873,-2.111982 1.279077,-1.355888 1.912956,-2.751778 2.055736,-4.527009 0.269529,-3.351143 -2.030233,-6.601025 -5.364153,-7.580288 -0.94193,-0.276669 -2.828094,-0.279579 -3.878501,-0.006 -1.781117,0.463921 -3.645699,1.929826 -4.4981,3.536335 -1.283793,2.419547 -1.204981,5.271026 0.205895,7.449547 1.711138,2.642149 4.880315,3.945584 7.87625,3.23938 z M 6.4260426,26.664407 6.3864407,25.613559 4.2508475,25.576218 2.1152542,25.538876 v 1.08819 1.088188 h 2.1751952 2.1751952 z m 6.6142634,-6.20339 c 0.093,-0.447458 0.211637,-0.920339 0.263643,-1.050848 0.08893,-0.223157 -0.176812,-0.237288 -4.4623234,-0.237288 H 4.2847458 v 1.086651 1.08665 l 4.2932366,-0.0358 4.2932366,-0.0358 z M 6.4260426,16.020339 6.4656446,14.969492 H 4.2904494 2.1152542 v 1.088188 1.08819 L 4.2508475,17.10853 6.3864407,17.07119 Z M 25.572881,9.5457627 V 8.4610169 H 14.928814 4.2847458 V 9.5457627 10.630508 H 14.928814 25.572881 Z M 6.4542373,5.3423729 V 4.2576271 H 4.2847458 2.1152542 v 1.0847458 1.0847457 h 2.1694916 2.1694915 z"
     id="path3751"
     inkscape:connector-curvature="0" /><path
     style="fill:#c5c5c5;fill-opacity:1;stroke-width:0.13559322"
     d="m 21.288136,25.613559 v -2.101695 h -2.101695 -2.101695 v -1.084745 -1.084746 h 2.101695 2.101695 v -2.101695 -2.101695 h 1.084745 1.084746 v 2.101695 2.101695 h 2.101695 2.101695 v 1.084746 1.084745 h -2.101695 -2.101695 v 2.101695 2.101695 h -1.084746 -1.084745 z"
     id="path4558"
     inkscape:connector-curvature="0" /><path
     style="fill:#c5c5c5;fill-opacity:1;stroke-width:0.13559322"
     d="m 20.800286,31.792358 c -0.380182,-0.06064 -0.929334,-0.187496 -1.220339,-0.2819 -0.680756,-0.220843 -2.332828,-1.045114 -2.750775,-1.37245 C 16.521561,29.897089 16.1069,29.884746 8.3206971,29.884746 H 0.13559322 V 25.613559 21.342373 H 1.1525424 2.1694915 V 20.257627 19.172881 H 1.1525424 0.13559322 V 14.901695 10.630508 H 1.1525424 2.1694915 V 9.5457627 8.4610169 H 1.1525424 0.13559322 V 4.2576271 0.05423729 H 14.983051 29.830508 V 4.2576271 8.4610169 h -1.084745 -1.084746 v 1.0672373 1.0672368 l 1.073009,0.0936 1.073009,0.0936 0.04564,2.805264 0.04564,2.805265 0.517427,0.846033 c 0.284584,0.465316 0.705377,1.350062 0.935096,1.966102 0.543515,1.457541 0.676615,3.69605 0.316112,5.316444 -0.716079,3.218639 -3.199067,5.931086 -6.336676,6.922265 -1.161365,0.366877 -3.355716,0.535594 -4.529978,0.348294 z m 3.322688,-2.251989 c 2.53138,-0.596689 4.837963,-2.921222 5.443768,-5.486132 0.257581,-1.090566 0.200615,-2.750583 -0.130623,-3.80639 C 28.737025,18.019505 26.7347,16.035455 24.497201,15.354005 23.72216,15.117959 23.318647,15.08147 22.0292,15.130826 c -1.493262,0.05716 -1.578789,0.07745 -2.734489,0.648826 -2.655478,1.312855 -4.243864,3.800858 -4.243864,6.647467 0,2.780748 1.576601,5.273303 4.151808,6.563871 1.492714,0.748076 3.246587,0.943905 4.920319,0.549379 z M 6.5069822,27.138983 C 6.5061551,26.822034 6.4676694,26.333898 6.4214443,26.054237 L 6.3373986,25.545763 H 4.1856485 2.0338983 v 1.084745 1.084746 h 2.2372881 2.2372882 l -0.00149,-0.576271 z m 6.4527468,-6.169491 c 0.04595,-0.205085 0.138294,-0.586441 0.205217,-0.847458 0.264466,-1.031492 0.647832,-0.949153 -4.4191833,-0.949153 H 4.2033898 v 1.084746 1.084746 H 8.5397896 12.876189 Z M 6.4214443,16.630508 c 0.046225,-0.279661 0.084717,-0.767796 0.085538,-1.084745 l 0.00149,-0.576271 H 4.2711864 2.0338983 v 1.084745 1.084746 H 4.1856485 6.3373986 Z M 25.627119,9.5457627 V 8.4610169 H 14.915254 4.2033898 V 9.5457627 10.630508 H 14.915254 25.627119 Z M 6.5084746,5.3423729 V 4.2576271 H 4.2711864 2.0338983 v 1.0847458 1.0847457 h 2.2372881 2.2372882 z"
     id="path4560"
     inkscape:connector-curvature="0" /></svg>