<?xml version="1.0" encoding="utf-8"?>
<!-- Generator: Adobe Illustrator 15.0.2, SVG Export Plug-In . SVG Version: 6.00 Build 0)  -->
<!DOCTYPE svg PUBLIC "-//W3C//DTD SVG 1.1//EN" "http://www.w3.org/Graphics/SVG/1.1/DTD/svg11.dtd">
<svg version="1.1" id="Layer_1" xmlns="http://www.w3.org/2000/svg" xmlns:xlink="http://www.w3.org/1999/xlink" x="0px" y="0px"
	 width="256px" height="256px" viewBox="0 0 256 256" enable-background="new 0 0 256 256" xml:space="preserve">
<path fill="#5D87A1" d="M215.142,170.904c0,8.328-6.753,15.079-15.08,15.079H27.472c-8.33,0-15.082-6.751-15.082-15.079V97.176
	c0-8.329,6.751-15.08,15.082-15.08h172.589c8.327,0,15.08,6.751,15.08,15.08V170.904z"/>
<radialGradient id="SVGID_1_" cx="90.7427" cy="122.4194" r="88.207" gradientUnits="userSpaceOnUse">
	<stop  offset="0" style="stop-color:#FFFFFF"/>
	<stop  offset="1" style="stop-color:#ADAFB2"/>
</radialGradient>
<path fill="url(#SVGID_1_)" d="M215.142,170.904c0,8.328-6.753,15.079-15.08,15.079H27.472c-8.33,0-15.082-6.751-15.082-15.079
	V97.176c0-8.329,6.751-15.08,15.082-15.08h172.589c8.327,0,15.08,6.751,15.08,15.08V170.904z"/>
<linearGradient id="SVGID_2_" gradientUnits="userSpaceOnUse" x1="164.3613" y1="222.0527" x2="141.1221" y2="111.1735">
	<stop  offset="0" style="stop-color:#CBD6DF"/>
	<stop  offset="1" style="stop-color:#B9C7D4"/>
</linearGradient>
<path fill="url(#SVGID_2_)" d="M206.275-0.161c10.098,0,16.228,2.673,18.407,8.015c0.987,1.782,1.481,3.964,1.481,6.533
	c0,4.353-1.385,10.293-4.156,17.813l-7.942,22.364l-70.29,200.726H86.771c-6.73,0-11.283-0.391-13.652-1.188
	c-6.731-1.979-10.097-6.333-10.097-13.06v-0.895c0-4.156,1.385-9.795,4.155-16.921l58.785-168.633
	c5.741-15.833-1.979-23.354-23.157-22.562h-83.43L29.627-0.161H206.275z"/>
<linearGradient id="SVGID_3_" gradientUnits="userSpaceOnUse" x1="128.5586" y1="132.2852" x2="120.0017" y2="34.7364">
	<stop  offset="0" style="stop-color:#5D87A1"/>
	<stop  offset="1" style="stop-color:#FFFFFF"/>
</linearGradient>
<path opacity="0.69" fill="url(#SVGID_3_)" d="M96.103,181.68c4.25,0,8.592-0.086,13.042-0.257
	c4.444-0.165,8.906-0.422,13.379-0.763c-5.979,7.479-9.616,12.575-10.91,15.289l-21.543,48.107l82.168-93.565h-35.851L217.477,1.077
	c-2.909-1.033-6.538-1.581-10.979-1.581H29.579L19.312,31.739h83.557c21.21-0.792,28.941,6.74,23.194,22.597L81.622,181.337h10.043
	L96.103,181.68z"/>
<path fill="#FFFFFF" d="M183.136,108.288h-32.272c-7.881,0-15.432-1.006-15.432,9.394c0,9.729,7.718,9.059,15.432,9.059
	c8.726,0,27.846-1.51,35.563,4.192c12.075,9.059,9.56,35.562-4.363,41.936c-5.031,2.35-13.586,2.182-18.954,2.182h-51.226
	l6.606-14.929h41.267c7.377,0,16.939,1.509,16.939-8.724c0-3.689-0.837-7.045-4.696-8.386c-2.18-0.841-8.219-0.672-10.569-0.672
	c-9.392,0-27.677,1.678-35.39-4.864c-11.575-9.729-11.743-32.709,1.844-40.761c5.368-3.187,12.58-3.354,18.62-3.354h44.114
	L183.136,108.288z"/>
<path fill="#FFFFFF" d="M55.983,141.042c2.015-0.838,3.861-1.008,8.893-1.008h45.651v-14.936c0-12.418-1.676-18.292-6.209-23.664
	c-5.372-6.377-11.579-8.224-28.7-8.224H40.031l-4.523,14.938h38.266c9.396,0,12.922,1.174,15.44,4.698
	c2.015,2.853,2.351,5.203,2.351,12.251H63.197c-9.396,0-15.438,0.84-19.296,2.687c-7.89,3.523-12.756,12.249-12.756,22.654
	c0,8.226,3.187,15.273,8.895,19.638c5.37,4.028,9.9,4.867,26.515,4.867h37.187l6.786-14.937v-10.692H91.23v10.692H64.876
	c-10.404,0-14.265-2.686-14.265-9.902C50.611,145.741,52.626,142.386,55.983,141.042z"/>
</svg>
