<?xml version="1.0" encoding="UTF-8" standalone="no"?>
<svg
   xmlns:dc="http://purl.org/dc/elements/1.1/"
   xmlns:cc="http://creativecommons.org/ns#"
   xmlns:rdf="http://www.w3.org/1999/02/22-rdf-syntax-ns#"
   xmlns:svg="http://www.w3.org/2000/svg"
   xmlns="http://www.w3.org/2000/svg"
   xmlns:sodipodi="http://sodipodi.sourceforge.net/DTD/sodipodi-0.dtd"
   xmlns:inkscape="http://www.inkscape.org/namespaces/inkscape"
   id="Layer_1"
   data-name="Layer 1"
   viewBox="0 0 154.68 142.00882"
   version="1.1"
   sodipodi:docname="Logotype_RH_OpenShift.svg"
   inkscape:version="0.92.2 5c3e80d, 2017-08-06"
   width="154.67999"
   height="142.00882">
  <metadata
     id="metadata6973">
    <rdf:RDF>
      <cc:Work
         rdf:about="">
        <dc:format>image/svg+xml</dc:format>
        <dc:type
           rdf:resource="http://purl.org/dc/dcmitype/StillImage" />
        <dc:title>Logotype_RH_OpenShift_StackedLogo_RGB_White</dc:title>
      </cc:Work>
    </rdf:RDF>
  </metadata>
  <sodipodi:namedview
     pagecolor="#ffffff"
     bordercolor="#666666"
     borderopacity="1"
     objecttolerance="10"
     gridtolerance="10"
     guidetolerance="10"
     inkscape:pageopacity="0"
     inkscape:pageshadow="2"
     inkscape:window-width="1374"
     inkscape:window-height="839"
     id="namedview6971"
     showgrid="false"
     inkscape:zoom="1.1360901"
     inkscape:cx="59.578059"
     inkscape:cy="143.83461"
     inkscape:window-x="0"
     inkscape:window-y="0"
     inkscape:window-maximized="0"
     inkscape:current-layer="Layer_1"
     fit-margin-top="0"
     fit-margin-left="0"
     fit-margin-right="0"
     fit-margin-bottom="0" />
  <defs
     id="defs6914">
    <style
       id="style6912">.cls-1{fill:#a30000;}.cls-2{fill:#c00;}.cls-3{fill:#820000;}.cls-4{fill:#fff;}</style>
  </defs>
  <title
     id="title6916">Logotype_RH_OpenShift_StackedLogo_RGB_White</title>
  <g
     id="g8106"
     transform="translate(-14.78,-0.06537356)">
    <path
       id="path6918"
       d="m 59.7,63.7 -24.84,9 a 72.86,72.86 0 0 0 2,11.77 L 60.45,75.88 A 46.61,46.61 0 0 1 59.7,63.7"
       class="cls-1"
       inkscape:connector-curvature="0"
       style="fill:#a30000" />
    <path
       id="path6920"
       d="M 169.46,36.24 A 70.36,70.36 0 0 0 163.4,26 l -24.83,9 a 46.33,46.33 0 0 1 7.29,9.83 z"
       class="cls-1"
       inkscape:connector-curvature="0"
       style="fill:#a30000" />
    <path
       id="path6922"
       d="m 114.82,29.21 a 45.51,45.51 0 0 1 13.41,9.55 l 24.84,-9 A 71,71 0 0 0 24.53,76.5 l 24.83,-9 a 46,46 0 0 1 65.46,-38.26"
       class="cls-2"
       inkscape:connector-curvature="0"
       style="fill:#cc0000" />
    <path
       id="path6924"
       d="m 38.38,84 -23.6,8.59 a 72,72 0 0 0 11.09,24 l 24.79,-9 A 46.36,46.36 0 0 1 38.38,84"
       class="cls-2"
       inkscape:connector-curvature="0"
       style="fill:#cc0000" />
    <path
       id="path6926"
       d="m 141.3,74.58 a 45.23,45.23 0 0 1 -4.17,15.94 46.08,46.08 0 0 1 -74.76,12.79 l -24.78,9 a 70.94,70.94 0 0 0 122.1,-11.28 70.29,70.29 0 0 0 6.39,-35.48 z"
       class="cls-2"
       inkscape:connector-curvature="0"
       style="fill:#cc0000" />
    <path
       id="path6928"
       d="m 147.41,44.27 -23.59,8.59 a 46.29,46.29 0 0 1 5.77,26 l 24.78,-9 a 71.55,71.55 0 0 0 -7,-25.56"
       class="cls-2"
       inkscape:connector-curvature="0"
       style="fill:#cc0000" />
    <path
       id="path6930"
       d="m 59.6,68.69 a 46.28,46.28 0 0 1 0.1,-5 l -24.84,9 c 0.13,1.6 0.33,3.18 0.57,4.75 z"
       class="cls-3"
       inkscape:connector-curvature="0"
       style="fill:#820000" />
    <path
       id="path6932"
       d="m 165.86,29.7 c -0.78,-1.27 -1.59,-2.52 -2.46,-3.74 l -24.83,9 a 40.81,40.81 0 0 1 3.06,3.52 z"
       class="cls-3"
       inkscape:connector-curvature="0"
       style="fill:#820000" />
    <path
       id="path6934"
       d="M 37.59,112.33 A 70.8,70.8 0 0 0 43.9,120 l 27,-9.84 a 46,46 0 0 1 -8.51,-6.85 z m 128.49,-46.76 -24.78,9 a 45.11,45.11 0 0 1 -2.09,10.66 l 27,-9.84 a 70.06,70.06 0 0 0 -0.1,-9.83"
       class="cls-1"
       inkscape:connector-curvature="0"
       style="fill:#a30000" />
  </g>
</svg>
